# xmcd
#
# Track frame offsets:
#	150
#	15830
#	30015
#	45384
#	60590
#	76471
#	90236
#	105092
#	122364
#	136244
#	150644
#	167495
#	181483
#	197065
#
# Disc length: 2807 seconds
# Revision: 0
# Processed by: cddbd v1.5.2PL0 Copyright (c) Steve Scherf et al.
# Submitted via: dBpowerAMP V12.0
#
DISCID=8b0af50e
DTITLE=Laura Lynn - Eindeloos
DYEAR=2010
DGENRE=Vlaams
TTITLE0=Met Jou Samen Leven
TTITLE1=Man Van M'n Dromen
TTITLE2=Zolang Ik Leef
TTITLE3=Want Jij Verdween
TTITLE4=Wat Heb Jij Met Mij Gedaan?
TTITLE5=De Wieg Van De Liefde
TTITLE6=Jij Brengt Weer Vreugde In M'n Dagen
TTITLE7=Kon Ik Maar Teruggaan In De Tijd
TTITLE8=Ware Liefde
TTITLE9=1000 Keer
TTITLE10=Eindeloos
TTITLE11=Het ABC Van De Liefde
TTITLE12=Naar De Kermis (Duet Met De Romeo's)
TTITLE13=Fietsen, Lopen, Stappen (Gordellied 2010)
EXTD=
EXTT0=
EXTT1=
EXTT2=
EXTT3=
EXTT4=
EXTT5=
EXTT6=
EXTT7=
EXTT8=
EXTT9=
EXTT10=
EXTT11=
EXTT12=
EXTT13=
PLAYORDER=
